<?xml version="1.0" encoding="UTF-8" standalone="yes"?>
<!DOCTYPE svg PUBLIC "-//W3C//DTD SVG 1.1//EN" "http://www.w3.org/Graphics/SVG/1.1/DTD/svg11.dtd">

<svg width="50" height="50" viewBox="0 0 50 50" xmlns="http://www.w3.org/2000/svg" xmlns:xlink="http://www.w3.org/1999/xlink" version="1.1" baseProfile="full">
    <g transform="scale(1,-1) translate(0,-50)">
        <path d="M 12.607709 50.269384 L 19.885091 45.429238 L 19.885091 45.085965 L 17.777173 42.358011 L 15.950315 39.666536 L 14.404514 37.011540 L 13.139771 34.393018 L 12.156083 31.810970 L 11.453450 29.265391 L 11.207529 28.006278 L 11.031871 26.756281 L 10.926477 25.515401 L 10.891345 24.283636 L 10.891345 22.532945 L 10.848437 22.232581 L 10.719710 22.018035 L 10.505165 21.889308 L 10.204800 21.846400 L 1.520000 26.686546 L 1.851473 29.677320 L 2.348144 32.556522 L 3.010014 35.324156 L 3.837084 37.980223 L 4.829355 40.524727 L 5.986828 42.957668 L 7.309503 45.279050 L 8.797382 47.488874 L 10.142585 48.705352 L 11.226039 49.574260 L 12.047745 50.095603 L 12.607709 50.269384 Z M 75.735564 50.269384 L 77.036653 49.230711 L 78.253801 48.140014 L 79.387006 46.997291 L 80.436269 45.802542 L 81.401590 44.555767 L 82.282969 43.256966 L 83.080407 41.906138 L 83.793904 40.503282 L 84.423459 39.048399 L 84.969073 37.541488 L 85.430745 35.982549 L 85.808478 34.371581 L 86.102269 32.708585 L 86.312120 30.993559 L 86.438030 29.226504 L 86.480000 27.407418 L 86.480000 27.029818 L 86.338938 26.751445 L 85.915750 26.379746 L 85.210435 25.914721 L 84.222993 25.356368 L 81.401722 23.959678 L 77.451927 22.189672 L 77.108655 22.876218 L 77.108655 26.343273 L 77.074864 27.733265 L 76.973492 29.096974 L 76.804539 30.434398 L 76.568004 31.745540 L 76.263887 33.030398 L 75.892189 34.288974 L 75.452909 35.521267 L 74.946046 36.727278 L 74.371602 37.907007 L 73.729575 39.060454 L 73.019966 40.187620 L 72.242775 41.288505 L 71.398001 42.363108 L 70.485644 43.411432 L 69.505704 44.433475 L 68.458182 45.429238 L 68.526836 45.448144 L 68.646981 45.504864 L 69.041743 45.731745 L 70.449156 46.639268 L 75.735564 50.269384 Z M 47.999127 45.772511 L 53.349906 43.339557 L 55.661633 42.383757 L 57.730920 41.601740 L 59.557769 40.993505 L 61.142183 40.559053 L 62.484162 40.298382 L 63.583709 40.211492 L 64.345347 40.342364 L 65.291490 40.734980 L 66.422143 41.389344 L 67.737309 42.305456 L 68.726367 41.585118 L 69.668222 40.711383 L 70.562876 39.684250 L 71.410329 38.503716 L 72.210581 37.169782 L 72.963634 35.682447 L 73.669489 34.041707 L 74.328145 32.247564 L 75.126255 27.579048 L 75.325782 26.274616 L 75.375664 25.879854 L 75.392291 25.656727 L 74.530889 25.517809 L 73.680216 25.307020 L 72.840272 25.024357 L 72.011056 24.669822 L 71.192567 24.243413 L 70.384804 23.745131 L 68.801455 22.532945 L 68.114909 22.532945 L 60.376234 27.937360 L 53.809006 32.341973 L 48.413203 35.746800 L 46.154578 37.074299 L 44.188800 38.151855 L 42.772800 38.237673 L 41.065018 38.495128 L 40.325371 38.418965 L 39.462363 38.190476 L 38.475992 37.809659 L 37.366259 37.276516 L 36.133162 36.591044 L 34.776699 35.753244 L 31.693673 33.620655 L 30.037380 33.363200 L 28.913164 33.277382 L 27.924106 33.734365 L 27.188216 34.178473 L 26.705490 34.609709 L 26.475927 35.028073 L 26.475927 37.087710 L 30.457903 40.737140 L 33.581682 43.343866 L 34.821751 44.256218 L 35.847275 44.907896 L 36.658254 45.298903 L 37.254691 45.429238 L 41.408291 45.429238 L 44.446254 45.515055 L 47.999127 45.772511 Z M 21.635782 42.992001 L 24.690919 42.466364 L 26.922190 41.884947 L 27.728878 41.573321 L 28.329603 41.247748 L 28.724364 40.908230 L 28.913164 40.554765 L 27.546505 39.346871 L 26.570324 38.194764 L 26.228661 37.639629 L 25.984617 37.098439 L 25.838191 36.571193 L 25.789382 36.057892 L 25.789382 35.028073 L 26.066682 34.456844 L 26.400836 33.961779 L 26.791844 33.542878 L 27.239707 33.200143 L 27.744424 32.933571 L 28.305996 32.743163 L 28.924425 32.628918 L 29.599709 32.590837 L 30.286255 32.590837 L 30.814574 32.661100 L 31.489854 32.871889 L 33.281304 33.715050 L 35.660610 35.120322 L 38.627782 37.087710 L 40.721745 37.465310 L 41.408291 37.465310 L 42.697176 37.324248 L 44.212402 36.901060 L 45.953970 36.195745 L 47.921883 35.208303 L 50.116143 33.938732 L 52.536750 32.387031 L 55.183708 30.553200 L 58.057018 28.437237 L 67.394036 21.846400 L 68.206630 21.355625 L 68.910876 20.844471 L 69.506777 20.312935 L 69.994331 19.761018 L 70.373539 19.188720 L 70.644401 18.596038 L 70.806919 17.982974 L 70.861091 17.349527 L 70.604172 16.697842 L 70.296835 16.133050 L 69.939082 15.655150 L 69.530910 15.264141 L 69.072321 14.960024 L 68.563312 14.742798 L 68.003884 14.612462 L 67.394036 14.569017 L 66.707491 14.569017 L 66.020945 14.912290 L 65.961410 13.528466 L 65.782802 12.329154 L 65.485121 11.314354 L 65.068368 10.484064 L 64.532541 9.838284 L 63.877641 9.377014 L 63.103667 9.100252 L 62.210618 9.007999 L 59.773382 9.007999 L 59.724573 8.190041 L 59.578147 7.469703 L 59.334103 6.846985 L 58.992441 6.321886 L 58.553160 5.894405 L 58.016260 5.564543 L 57.381740 5.332298 L 56.649600 5.197671 L 54.933236 5.197671 L 54.246691 5.540944 L 54.197882 4.647895 L 54.051456 3.873920 L 53.807412 3.219020 L 53.465750 2.683193 L 53.026469 2.266440 L 52.489569 1.968760 L 51.855049 1.790152 L 51.122909 1.730616 L 50.402036 1.730616 L 49.809354 1.768698 L 49.164109 1.882943 L 47.715930 2.339923 L 46.057495 3.101559 L 44.188800 4.167853 L 44.188800 4.511126 L 45.218618 7.978180 L 45.218618 9.007999 L 45.154255 9.265454 L 44.961165 9.522908 L 44.639347 9.780362 L 44.188800 10.037817 L 43.467927 10.037817 L 42.886509 9.951999 L 42.172074 9.694546 L 41.324621 9.265455 L 40.344145 8.664726 L 40.344145 9.007999 L 40.959892 10.436874 L 41.399710 11.839999 L 41.663601 13.217379 L 41.751564 14.569017 L 41.663601 14.860800 L 41.399710 15.186908 L 40.959892 15.547344 L 40.344145 15.942108 L 39.695679 15.904027 L 39.071888 15.789782 L 38.472770 15.599374 L 37.898326 15.332802 L 37.348555 14.990066 L 36.823456 14.571166 L 36.323028 14.076101 L 35.847273 13.504872 L 35.814555 14.647331 L 35.716401 15.637461 L 35.552811 16.475261 L 35.323785 17.160733 L 35.029321 17.693876 L 34.669421 18.074693 L 34.244084 18.303182 L 33.753309 18.379345 L 33.410036 18.379345 L 32.208578 17.802217 L 31.350397 17.203636 L 31.050034 16.896300 L 30.835490 16.583601 L 30.706763 16.265537 L 30.663855 15.942108 L 29.942982 15.942108 L 30.286255 17.692799 L 30.286255 19.065890 L 30.044354 19.476210 L 29.747746 19.831820 L 29.396429 20.132720 L 28.990403 20.378911 L 28.529667 20.570392 L 28.014222 20.707164 L 26.819200 20.816581 L 23.729745 17.692799 L 23.352145 17.692799 L 20.610248 20.001315 L 19.319759 20.968915 L 18.082907 21.812077 L 16.899692 22.530802 L 15.770112 23.125091 L 14.694167 23.594945 L 13.671855 23.940363 L 13.294255 24.626909 L 13.424590 27.008908 L 13.815596 29.366228 L 14.467274 31.698871 L 15.379626 34.006838 L 16.552651 36.290133 L 17.986352 38.548757 L 19.680728 40.782712 L 21.635782 42.992001 Z M 26.819200 19.752436 L 28.226618 19.752436 L 28.827347 19.396291 L 29.256438 18.877092 L 29.513892 18.194838 L 29.599709 17.349527 L 29.599709 16.971927 L 29.550900 16.458625 L 29.404474 15.931380 L 29.160430 15.390189 L 28.818767 14.835054 L 27.842586 13.682947 L 26.475927 12.475054 L 26.132655 12.475054 L 25.287343 12.563016 L 24.605090 12.826906 L 24.085891 13.266724 L 23.729745 13.882472 L 23.729745 14.569017 L 23.778018 15.333338 L 23.922835 16.064402 L 24.164197 16.762211 L 24.502105 17.426764 L 24.936559 18.058063 L 25.467559 18.656107 L 26.095106 19.220898 L 26.819200 19.752436 Z M 33.410036 17.349527 L 34.130909 17.349527 L 34.375491 17.283018 L 34.628654 17.083491 L 34.890399 16.750946 L 35.160727 16.285381 L 35.160727 14.912290 L 34.827645 13.367556 L 34.429127 12.028790 L 33.965174 10.895989 L 33.435785 9.969154 L 32.840958 9.248284 L 32.180695 8.733377 L 31.454994 8.424434 L 30.663855 8.321453 L 29.942982 8.321453 L 29.664072 8.407271 L 29.342254 8.664724 L 28.977528 9.093815 L 28.569891 9.694544 L 28.569891 10.758690 L 28.930864 12.303423 L 29.361563 13.642190 L 29.861989 14.774990 L 30.432142 15.701825 L 31.072023 16.422696 L 31.781632 16.937602 L 32.560969 17.246546 L 33.410036 17.349527 Z M 39.657600 15.255563 L 40.000873 15.255563 L 40.260474 15.191200 L 40.524364 14.998110 L 40.792545 14.676292 L 41.065018 14.225745 L 40.994219 12.832803 L 40.781820 11.503156 L 40.427822 10.236803 L 39.932224 9.033742 L 39.295025 7.893972 L 38.516225 6.817492 L 37.595823 5.804301 L 36.533818 4.854398 L 35.160727 4.854398 L 34.544980 5.212689 L 34.105162 5.738324 L 33.841272 6.431305 L 33.753309 7.291635 L 33.753309 7.634908 L 34.378711 9.421006 L 35.036293 10.968955 L 35.726055 12.278756 L 36.447999 13.350409 L 37.202125 14.183915 L 37.988433 14.779275 L 38.806924 15.136491 L 39.657600 15.255563 Z M 43.811200 9.694544 L 44.420510 9.437089 L 44.875345 9.351271 L 44.875345 8.321453 L 43.989270 5.738318 L 43.551062 4.723517 L 43.116072 3.893227 L 42.684300 3.247448 L 42.255746 2.786177 L 41.830410 2.509416 L 41.408291 2.417162 L 40.344145 2.417162 L 40.099564 2.483670 L 39.846400 2.683197 L 39.584655 3.015742 L 39.314327 3.481308 L 39.314327 4.167853 L 39.542282 5.463177 L 39.865709 6.585788 L 40.284607 7.535689 L 40.798978 8.312878 L 41.408823 8.917358 L 42.114141 9.349129 L 42.914933 9.608190 L 43.811200 9.694544 Z" transform="scale(0.500000,0.500000) translate(6.000000,24.000000)" fill="#094541" opacity="1.000000"></path>
    </g>
</svg>