<?xml version="1.0" encoding="UTF-8" standalone="yes"?>
<!DOCTYPE svg PUBLIC "-//W3C//DTD SVG 1.1//EN" "http://www.w3.org/Graphics/SVG/1.1/DTD/svg11.dtd">

<svg width="50" height="50" viewBox="0 0 50 50" xmlns="http://www.w3.org/2000/svg" xmlns:xlink="http://www.w3.org/1999/xlink" version="1.1" baseProfile="full">
    <g transform="scale(1,-1) translate(0,-50)">
        <path d="M 28.006553 74.744712 L 35.159936 74.744712 L 35.700300 74.513129 L 35.835390 74.300843 L 35.880420 74.024228 L 35.880420 70.113026 L 37.231327 69.842844 L 39.431380 69.032299 L 41.219728 71.373878 L 41.834067 71.985001 L 42.261855 72.223016 L 42.339854 72.199496 L 42.458058 72.128936 L 42.815082 71.846694 L 44.011596 70.717724 L 48.334511 66.201824 L 48.211481 66.139908 L 48.022515 65.979891 L 47.446773 65.365551 L 45.504036 62.959643 L 46.314582 61.377150 L 46.517218 60.711346 L 46.584762 60.129168 L 50.135722 60.129168 L 50.676086 59.897585 L 50.811177 59.685300 L 50.856207 59.408684 L 50.856207 52.975786 L 50.495964 52.255302 L 49.595357 52.728121 L 48.643290 53.065848 L 47.639760 53.268483 L 46.584762 53.336028 L 45.403518 52.987847 L 44.278564 52.535132 L 43.209899 51.977884 L 42.197524 51.316102 L 41.241437 50.549785 L 40.341637 49.678931 L 39.498123 48.703542 L 38.710895 47.623615 L 38.350653 44.072656 L 38.350653 43.712413 L 38.710895 41.911202 L 37.781339 41.669968 L 36.999742 41.357973 L 36.366104 40.975216 L 35.880420 40.521696 L 36.240663 38.720485 L 36.240663 37.279515 L 36.195632 36.964303 L 36.060542 36.739152 L 35.835390 36.604061 L 35.520178 36.559031 L 32.277997 36.559031 L 30.837029 36.468971 L 29.087280 36.198789 L 27.736369 36.700553 L 27.398643 36.980384 L 27.286069 37.279515 L 27.286069 41.190717 L 25.446257 41.731081 L 24.455593 41.911202 L 24.059971 41.756813 L 23.387736 41.293647 L 21.213413 39.440969 L 15.552463 45.153382 L 15.552463 45.513625 L 15.596688 45.647911 L 15.729366 45.844918 L 16.260078 46.427093 L 18.382938 48.344100 L 17.572391 50.055252 L 17.302211 51.174575 L 13.391009 51.174575 L 13.075796 51.219605 L 12.850645 51.354695 L 12.715554 51.579847 L 12.670524 51.895059 L 12.670524 59.408684 L 12.902108 59.949048 L 13.114393 60.084138 L 13.391009 60.129168 L 17.302211 60.129168 L 17.572391 61.106967 L 18.382938 62.599401 L 18.338712 62.734492 L 18.206034 62.959643 L 17.675323 63.680124 L 15.552463 66.201824 L 15.575983 66.254292 L 15.646543 66.347368 L 15.928784 66.655341 L 17.057753 67.758579 L 21.573655 71.914237 L 24.815836 69.032299 L 26.308269 69.842844 L 27.286069 70.113026 L 27.286069 74.024228 L 27.517653 74.564593 L 27.729938 74.699683 L 28.006553 74.744712 Z M 22.294140 55.857724 L 22.444507 53.967249 L 22.895611 52.284240 L 23.647452 50.808694 L 24.700031 49.540611 L 26.053350 48.479990 L 27.707409 47.626830 L 29.662211 46.981130 L 31.917755 46.542888 L 33.780087 46.688431 L 35.430129 47.125061 L 36.867881 47.852779 L 38.093346 48.871586 L 39.106524 50.181483 L 39.907417 51.782471 L 40.496025 53.674551 L 40.872349 55.857724 L 40.754950 57.359008 L 40.402751 58.749320 L 39.815752 60.028662 L 38.993952 61.197034 L 37.937351 62.254438 L 36.645946 63.200876 L 35.119737 64.036348 L 33.358724 64.760855 L 30.888491 64.760855 L 28.874182 64.109523 L 27.128450 63.339184 L 25.651295 62.449839 L 24.442717 61.441485 L 23.502713 60.314121 L 22.831283 59.067748 L 22.428425 57.702363 L 22.294140 56.217967 Z M 48.334511 52.255302 L 49.251202 52.160417 L 50.174323 51.875763 L 51.103876 51.401339 L 52.039860 50.737145 L 52.982278 49.883179 L 53.931129 48.839441 L 54.886414 47.605930 L 55.848136 46.182646 L 55.848136 40.830475 L 56.568620 39.801211 L 56.568620 39.440969 L 56.433530 37.572207 L 56.264668 36.838052 L 56.028260 36.237381 L 55.724306 35.770193 L 55.352806 35.436488 L 54.913759 35.236266 L 54.407166 35.169525 L 54.136984 32.030269 L 54.046924 29.817354 L 54.046924 29.096869 L 54.407166 26.935416 L 54.312282 26.553462 L 54.027628 26.050893 L 52.889009 24.683906 L 50.991305 22.834450 L 48.334511 20.502518 L 48.685104 20.348130 L 49.222249 19.884963 L 50.856207 18.032285 L 49.054995 15.870832 L 49.381466 15.742979 L 49.691854 15.359420 L 49.986159 14.720154 L 50.264381 13.825180 L 50.772579 11.268105 L 51.216449 7.688186 L 51.576691 7.688186 L 53.287848 11.969288 L 53.960086 14.020576 L 54.510098 16.012357 L 54.937884 17.944634 L 55.243445 19.817409 L 55.426781 21.630682 L 55.487893 23.384456 L 55.217711 24.786828 L 55.127651 26.214931 L 55.848136 26.214931 L 56.357942 25.748545 L 57.269801 25.224264 L 60.299685 24.002017 L 64.937801 22.548184 L 71.184164 20.862760 L 71.571748 20.645652 L 71.988278 19.994326 L 72.433756 18.908780 L 72.908181 17.389013 L 73.943876 13.046809 L 75.095366 6.967701 L 72.273728 5.628849 L 69.341130 4.468512 L 66.297571 3.486691 L 63.143046 2.683384 L 59.877554 2.058591 L 56.501090 1.612311 L 53.013653 1.344543 L 49.415238 1.255288 L 44.783551 1.255288 L 39.316370 1.828621 L 34.519831 2.467890 L 30.393930 3.173095 L 26.938666 3.944236 L 24.154034 4.781316 L 22.040032 5.684333 L 21.234517 6.160569 L 20.596658 6.653289 L 20.126454 7.162495 L 19.823907 7.688186 L 20.363467 10.944853 L 20.978612 13.767294 L 21.669343 16.155508 L 22.435660 18.109497 L 23.277564 19.629264 L 24.195055 20.714810 L 24.682147 21.094751 L 25.188135 21.366136 L 25.713021 21.528968 L 26.256805 21.583245 L 32.020700 23.127144 L 36.137752 24.413722 L 37.578717 24.960517 L 38.607975 25.442983 L 39.225529 25.861121 L 39.431380 26.214931 L 39.791622 26.214931 L 39.791622 21.583245 L 39.852734 19.998335 L 40.036070 18.357142 L 40.341631 16.659664 L 40.769417 14.905899 L 41.991667 11.229504 L 43.702824 7.327943 L 44.063066 7.327943 L 44.198156 10.528319 L 44.603427 13.078960 L 44.907381 14.110633 L 45.278881 14.979876 L 45.717927 15.686689 L 46.224520 16.231074 L 45.918957 16.343649 L 45.516901 16.681374 L 44.423309 18.032285 L 44.558398 18.363579 L 44.963669 18.945754 L 46.584762 20.862760 L 46.584762 21.223003 L 46.140891 21.329145 L 45.606961 21.596109 L 44.268923 22.612502 L 42.570640 24.272189 L 40.512107 26.575174 L 40.872349 29.817354 L 40.602166 32.930879 L 40.512107 35.169525 L 39.724074 35.301399 L 39.161196 35.697021 L 38.823470 36.356392 L 38.710895 37.279515 L 38.710895 40.521696 L 39.251259 40.598891 L 39.431380 40.830475 L 39.161197 41.460899 L 39.071138 41.911202 L 39.431380 41.911202 L 39.341320 42.181385 L 39.071138 42.271444 L 39.182908 44.127343 L 39.518221 45.809548 L 40.077076 47.318062 L 40.859475 48.652886 L 41.865418 49.814021 L 43.094906 50.801468 L 44.547940 51.615227 L 46.224520 52.255302 Z M 75.095366 51.174575 L 75.834952 51.123112 L 76.535537 50.968724 L 77.197122 50.711410 L 77.819706 50.351170 L 78.403291 49.888004 L 78.947876 49.321911 L 79.920047 47.880947 L 80.736219 46.028275 L 81.396392 43.763895 L 81.900569 41.087803 L 82.248749 38.000000 L 82.518931 36.327449 L 83.329476 33.368314 L 83.267560 33.171306 L 83.081811 32.966257 L 82.338814 32.532037 L 81.100482 32.065653 L 79.366811 31.567102 L 78.984855 31.422363 L 78.610942 30.988146 L 78.245071 30.264448 L 77.887242 29.251270 L 77.195707 26.356468 L 76.536335 22.303729 L 76.266153 22.213669 L 76.176093 21.943487 L 76.491307 21.875942 L 76.716459 21.673307 L 76.851548 21.335580 L 76.896578 20.862760 L 75.545667 18.238135 L 75.207941 17.427592 L 75.095366 16.951558 L 74.374882 16.951558 L 73.676909 19.431443 L 72.972508 22.342322 L 71.544407 29.457112 L 71.213111 30.120507 L 70.811055 30.695448 L 70.338239 31.181936 L 69.794660 31.579971 L 69.180320 31.889554 L 68.495217 32.110683 L 66.912720 32.287587 L 66.845175 32.548119 L 66.642540 32.815084 L 65.831993 33.368314 L 67.556011 42.593098 L 68.321524 45.902815 L 69.022711 48.344100 L 70.425083 49.582437 L 71.904646 50.466960 L 73.461405 50.997672 L 75.095366 51.174575 Z M 11.229555 39.801211 L 14.471736 39.801211 L 15.012100 39.543896 L 15.147190 39.338043 L 15.192220 39.080727 L 15.192220 37.279515 L 16.941969 36.919273 L 17.032028 37.221620 L 17.302209 37.562563 L 18.382938 38.360242 L 18.743180 38.360242 L 19.823910 37.540046 L 20.595858 36.674823 L 21.059024 35.764569 L 21.213413 34.809283 L 20.544391 33.728556 L 20.544391 33.008071 L 21.213413 31.927344 L 21.933897 32.287587 L 22.294140 32.287587 L 22.834504 32.056003 L 22.969594 31.843718 L 23.014624 31.567102 L 23.014624 28.016143 L 22.654382 27.295658 L 21.933897 27.655900 L 20.904634 27.655900 L 20.544391 25.854689 L 21.573655 24.104941 L 21.396752 23.558144 L 20.866040 22.895557 L 19.981517 22.117178 L 18.743180 21.223003 L 18.382938 21.223003 L 16.941969 22.303729 L 15.192220 21.943487 L 15.192220 19.782033 L 10.560534 19.782033 L 10.560534 21.943487 L 9.119565 22.303729 L 7.318353 21.223003 L 4.487878 24.104941 L 4.487878 24.465183 L 5.877384 26.214931 L 5.362752 27.295660 L 5.105437 27.565840 L 4.848120 27.655900 L 4.127636 27.295658 L 3.046907 27.823156 L 2.776727 28.096554 L 2.686667 28.376385 L 2.686667 31.567102 L 2.886085 31.811552 L 3.484342 32.133196 L 5.877384 33.008071 L 5.877384 33.368314 L 4.487878 35.169525 L 4.537733 35.320698 L 4.687297 35.542632 L 5.285553 36.198785 L 7.678595 38.360242 L 8.061353 37.729815 L 8.489140 37.279513 L 8.961957 37.009333 L 9.479807 36.919273 L 10.084500 37.189456 L 10.560534 37.279515 L 10.560534 39.080727 L 10.779252 39.621091 L 10.975455 39.756181 L 11.229555 39.801211 Z M 8.038838 30.126133 L 8.038838 29.457112 L 8.308216 28.443926 L 8.653179 27.565834 L 9.073729 26.822834 L 9.569864 26.214926 L 10.141587 25.742110 L 10.788897 25.404384 L 11.511795 25.201749 L 12.310282 25.134204 L 13.391009 25.134204 L 14.144465 25.201749 L 14.835198 25.404384 L 15.463210 25.742110 L 16.028500 26.214926 L 16.531068 26.822834 L 16.970917 27.565834 L 17.348045 28.443926 L 17.662453 29.457112 L 17.426848 30.711532 L 17.080277 31.798694 L 16.622739 32.718599 L 16.054233 33.471246 L 15.374760 34.056638 L 14.584317 34.474774 L 13.682906 34.725656 L 12.670524 34.809283 L 11.584968 34.420896 L 10.644155 33.976222 L 9.848084 33.475261 L 9.196754 32.918013 L 8.690165 32.304476 L 8.328316 31.634651 L 8.111207 30.908537 L 8.038838 30.126133 Z M 80.447537 29.096869 L 85.445916 28.093336 L 87.409559 27.552974 L 89.016173 26.986880 L 90.265759 26.395055 L 91.158318 25.777497 L 91.693853 25.134207 L 91.872364 24.465183 L 92.232608 22.586777 L 92.592849 19.936431 L 93.313333 12.319872 L 91.925433 11.549530 L 90.360632 10.833869 L 88.618929 10.172889 L 86.700322 9.566590 L 82.332389 8.518030 L 77.256820 7.688186 L 76.626395 9.109859 L 76.176092 10.595855 L 75.905911 12.146181 L 75.815851 13.760841 L 76.555635 15.182512 L 77.334015 17.080212 L 78.150992 19.453948 L 79.006568 22.303729 L 79.366811 22.303729 L 81.888507 20.862760 L 82.248749 20.862760 L 80.087295 28.736627 L 80.357478 28.826687 L 80.447537 29.096869 Z M 68.302226 28.376385 L 68.237898 27.138050 L 68.044912 25.893287 L 67.723267 24.642090 L 67.272962 23.384456 L 61.457614 25.237134 L 59.823663 25.700301 L 59.325116 25.816092 L 59.038853 25.854689 L 59.038853 26.935416 L 61.914366 27.565842 L 64.416760 28.016144 L 66.546043 28.286325 L 68.302226 28.376385 Z" transform="scale(0.500000,0.500000) translate(2.000000,12.000000)" fill="#094541" opacity="1.000000"></path>
    </g>
</svg>