<?xml version="1.0" encoding="UTF-8" standalone="yes"?>
<!DOCTYPE svg PUBLIC "-//W3C//DTD SVG 1.1//EN" "http://www.w3.org/Graphics/SVG/1.1/DTD/svg11.dtd">

<svg width="100" height="100" viewBox="0 0 100 100" xmlns="http://www.w3.org/2000/svg" xmlns:xlink="http://www.w3.org/1999/xlink" version="1.1" baseProfile="full">
    <g transform="scale(1,-1) translate(0,-100)">
        <path d="M 183.931363 333.120257 L 187.086152 332.461570 L 189.339568 330.485503 L 190.691615 327.192045 L 191.142296 322.581186 L 190.691615 319.183713 L 189.339568 316.756953 L 187.086152 315.300902 L 183.931363 314.815553 L 180.048533 315.300902 L 177.275093 316.756953 L 175.611034 319.183713 L 175.056350 322.581186 L 175.611034 327.192045 L 177.275093 330.485503 L 180.048533 332.461570 L 183.931363 333.120257 Z M 154.532919 333.674936 L 156.959678 333.050917 L 159.802454 331.178838 L 162.090542 328.474744 L 162.853231 325.354624 L 162.333216 321.471797 L 160.773165 318.698364 L 158.173069 317.034313 L 154.532919 316.479632 L 151.135447 317.034313 L 148.708691 318.698364 L 147.252643 321.471797 L 146.767296 325.354624 L 147.252643 328.994770 L 148.708691 331.594866 L 151.135447 333.154920 L 154.532919 333.674936 Z M 124.025106 105.143681 L 128.185281 104.875007 L 131.790758 104.068984 L 134.841541 102.725608 L 137.337632 100.844879 L 139.279032 98.426792 L 140.665744 95.471347 L 141.497769 91.978541 L 141.775111 87.948372 L 141.497769 83.658193 L 140.665744 79.940045 L 139.279032 76.793925 L 137.337632 74.219832 L 134.841541 72.217764 L 131.790758 70.787718 L 128.185281 69.929692 L 124.025106 69.643683 L 120.523635 69.955693 L 117.230185 70.891725 L 114.144743 72.451784 L 111.267298 74.635874 L 108.840533 77.339979 L 107.107135 80.460089 L 106.067100 83.996215 L 105.720423 87.948372 L 106.049766 91.640523 L 107.037799 94.951311 L 108.684525 97.880748 L 110.989948 100.428846 L 113.780724 102.491596 L 116.883501 103.964981 L 120.298291 104.849007 L 124.025106 105.143681 Z M 148.431354 231.612428 L 151.378140 231.335087 L 154.116907 230.503062 L 156.647665 229.116345 L 158.970425 227.174932 L 160.911834 224.852172 L 162.298551 222.321416 L 163.130579 219.582655 L 163.407921 216.635882 L 163.130579 213.931768 L 162.298551 211.366339 L 160.911834 208.939582 L 158.970425 206.651490 L 156.647665 204.710086 L 154.116907 203.323368 L 151.378140 202.491338 L 148.431354 202.213994 L 142.364443 203.115354 L 139.981020 204.242057 L 138.030949 205.819445 L 136.514230 207.847519 L 135.430860 210.326282 L 134.564167 216.635882 L 135.430860 223.188142 L 136.514230 225.762236 L 138.030949 227.868310 L 139.981020 229.506364 L 142.364443 230.676400 L 145.181221 231.378421 L 148.431354 231.612428 Z M 211.665738 374.167141 L 223.314183 372.641737 L 229.415742 371.393703 L 234.269273 369.070934 L 237.736068 365.985490 L 239.816138 362.137351 L 240.509492 357.526495 L 240.024143 355.585090 L 238.568092 353.643689 L 236.141332 351.702287 L 232.743859 349.760882 L 219.431350 344.214007 L 222.204804 337.835101 L 223.868867 330.901499 L 224.700886 323.551885 L 224.978225 315.924932 L 224.458212 307.119254 L 222.898163 298.452278 L 220.298067 289.923971 L 216.657913 281.534303 L 223.175489 276.126116 L 230.525100 267.667115 L 239.816135 255.463978 L 242.277556 252.274537 L 242.962248 251.407840 L 243.168090 251.156497 L 243.282930 251.026490 L 276.425552 265.587064 L 286.236548 270.059218 L 291.540725 272.659311 L 298.301003 276.888809 L 304.159882 281.256966 L 309.117388 285.763797 L 313.173546 290.409316 L 313.520228 291.172009 L 314.005579 292.628055 L 315.392292 297.620222 L 319.829801 315.924932 L 322.325896 324.938625 L 323.365930 327.469374 L 324.267296 328.682740 L 326.139367 328.058724 L 327.318074 326.186664 L 328.150113 322.581186 L 323.435257 305.108522 L 321.563194 296.302876 L 319.829801 284.862440 L 347.009476 287.635878 L 371.138405 289.715961 L 385.837601 290.409316 L 382.232123 287.913218 L 380.498741 286.318491 L 379.181368 284.307740 L 371.415734 284.307740 L 360.252616 284.030400 L 352.278990 283.198374 L 347.494832 281.811658 L 346.298796 280.910289 L 345.900118 279.870245 L 346.064788 279.306890 L 346.558802 278.448862 L 348.534864 275.848774 L 356.439189 267.112436 L 362.263403 260.178850 L 367.532939 252.690570 L 355.641794 261.912274 L 344.374718 268.499184 L 338.975194 270.804596 L 333.731673 272.451317 L 328.644149 273.439347 L 323.712617 273.768690 L 315.912307 273.006001 L 307.488004 270.717924 L 298.439676 266.904448 L 288.767288 261.565561 L 247.165725 234.385865 L 247.165725 227.174932 L 246.888386 216.081174 L 246.056367 209.424928 L 243.144260 201.936673 L 236.626675 188.346807 L 244.184308 178.015735 L 250.771210 167.546029 L 256.387405 156.937652 L 261.032913 146.190565 L 264.673067 135.512807 L 267.273163 125.112432 L 268.833212 114.989403 L 269.353225 105.143681 L 268.919880 95.609959 L 267.619841 86.422940 L 265.453105 77.582618 L 262.419669 69.088985 L 258.519528 60.942033 L 253.752681 53.141755 L 248.119123 45.688142 L 241.618850 38.581187 L 234.381896 31.968246 L 226.538273 25.996678 L 218.087973 20.666479 L 209.030989 15.977644 L 199.367311 11.930171 L 189.096932 8.524054 L 178.219844 5.759289 L 166.736038 3.635873 L 150.372763 1.971810 L 135.673546 1.417123 L 123.565713 1.867802 L 112.203272 3.219844 L 101.586214 5.473250 L 91.714530 8.628024 L 82.588212 12.684171 L 74.207250 17.641692 L 66.571635 23.500592 L 59.681359 30.260874 L 54.351137 36.726468 L 49.731620 43.642726 L 45.822805 51.009655 L 42.624689 58.827261 L 40.137270 67.095554 L 38.360546 75.814540 L 37.294513 84.984226 L 36.939169 94.604621 L 37.892531 110.638591 L 40.752627 126.013810 L 45.519470 140.730333 L 52.193076 154.788217 L 56.132235 161.353488 L 60.322725 167.320721 L 64.764550 172.689920 L 69.457715 177.461089 L 74.402223 181.634234 L 79.598080 185.209358 L 85.045289 188.186467 L 90.743856 190.565565 L 86.306358 197.776498 L 82.978233 204.987432 L 80.898150 212.753057 L 80.204796 221.628057 L 80.898150 229.047000 L 82.978233 237.991342 L 86.861050 252.690570 L 79.650111 260.178850 L 71.329794 267.112436 L 65.089548 271.237938 L 59.126668 274.184716 L 53.441132 275.952776 L 48.032920 276.542128 L 42.763388 275.848774 L 38.048543 273.768690 L 25.290732 268.776494 L 15.167676 263.922979 L 11.666221 261.600227 L 9.204796 259.346803 L 11.423545 267.667115 L 44.704798 284.862440 L 44.483791 285.308791 L 43.820771 285.815808 L 41.168682 287.011848 L 30.560265 290.131976 L 1.439170 298.174928 L 7.263399 301.087046 L 8.719448 302.647105 L 9.204796 304.276503 L 46.923546 292.628053 L 53.025110 325.354624 L 54.238493 323.482552 L 55.105192 320.639786 L 55.798548 312.042115 L 55.521204 305.039181 L 54.689168 299.561647 L 53.025110 292.628053 L 98.509479 259.901503 L 105.304403 266.627081 L 112.376667 272.381972 L 120.142292 277.582162 L 129.017292 282.643682 L 127.422570 287.358520 L 124.857135 295.956191 L 122.569051 305.801897 L 121.806358 314.260874 L 122.083700 319.391746 L 122.915728 324.245253 L 124.302445 328.821416 L 126.243854 333.120257 L 128.878624 337.349751 L 132.345413 341.717901 L 141.775111 350.870241 L 126.243854 354.753057 L 120.904973 357.179823 L 117.091501 360.022595 L 114.803425 363.281381 L 114.040735 366.956187 L 114.855430 369.313622 L 116.744826 371.393698 L 119.708935 373.196427 L 123.747767 374.721820 L 133.524128 376.801903 L 144.548548 377.495258 L 143.439169 385.260891 L 144.132523 391.327799 L 146.212593 396.770661 L 149.679388 401.589493 L 154.532919 405.784312 L 155.538290 406.130987 L 157.445022 406.616335 L 163.962611 408.003070 L 171.312228 409.251098 L 176.720429 409.667107 L 183.983377 409.285764 L 190.795619 408.141729 L 197.157180 406.234995 L 203.068086 403.565553 L 208.042952 400.202760 L 211.596416 396.215961 L 213.728487 391.605132 L 214.439175 386.370249 L 213.745821 381.932764 L 211.665738 374.167141 Z M 149.540733 346.432745 L 145.328566 344.578007 L 141.567097 341.787244 L 138.256314 338.060445 L 135.396206 333.397597 L 133.090777 328.145385 L 131.444048 322.650521 L 130.456014 316.912985 L 130.126671 310.932757 L 130.542683 304.623172 L 131.790729 299.006968 L 133.732139 293.945447 L 136.228235 289.299936 L 139.911717 286.439816 L 144.028535 283.961049 L 153.562200 280.147573 L 164.829271 277.859497 L 177.829788 277.096807 L 187.328819 277.651491 L 195.857131 279.315565 L 202.998751 282.227667 L 205.893516 284.203740 L 208.337600 286.526499 L 212.705786 291.553353 L 215.825907 298.313590 L 217.697973 306.807234 L 218.321992 317.034311 L 217.975313 325.389311 L 216.935276 332.704245 L 215.201878 338.979137 L 212.775117 344.214007 L 200.017288 344.768686 L 180.048546 344.214007 L 167.845417 344.491347 L 149.540733 346.432745 Z M 134.564167 276.542128 L 124.718443 271.931278 L 115.704788 266.419087 L 107.523168 260.005527 L 100.173548 252.690570 L 94.106632 244.855592 L 89.773139 236.881971 L 87.173053 228.769676 L 86.306360 220.518678 L 86.999715 214.521115 L 89.079785 208.176894 L 92.546580 201.485991 L 97.400110 194.448382 L 104.368382 187.930785 L 111.960649 182.245243 L 120.176943 177.391738 L 129.017292 173.370251 L 138.134989 170.215455 L 147.183313 167.962036 L 156.162299 166.609988 L 165.071979 166.159307 L 179.823237 167.130003 L 186.821827 168.343376 L 193.569064 170.042101 L 200.064957 172.226179 L 206.309512 174.895613 L 212.302734 178.050404 L 218.044631 181.690552 L 223.309855 185.746717 L 227.873041 190.149549 L 231.734190 194.899053 L 234.893306 199.995233 L 237.350392 205.438095 L 239.105449 211.227643 L 240.158482 217.363881 L 240.509492 223.846815 L 240.162813 230.052393 L 239.122776 235.911270 L 237.389378 241.423463 L 234.962617 246.588994 L 232.674531 249.951784 L 228.029037 255.602645 L 211.665738 273.768690 L 193.083704 270.856570 L 173.946992 269.885874 L 159.871776 270.163216 L 150.927452 270.995253 L 143.647183 272.936656 L 134.564167 276.542128 Z M 96.290731 186.128069 L 90.986515 184.412000 L 85.890320 182.037249 L 81.002142 179.003811 L 76.321976 175.311683 L 71.849819 170.960860 L 67.585667 165.951340 L 63.529515 160.283117 L 59.681359 153.956188 L 53.129093 140.296985 L 48.448920 125.944475 L 45.640826 110.898601 L 44.704798 95.159311 L 45.025473 85.963599 L 45.987502 77.235929 L 47.590887 68.976293 L 49.835630 61.184684 L 52.721733 53.861094 L 56.249200 47.005517 L 60.418033 40.617945 L 65.228234 34.698372 L 71.693828 28.328107 L 78.887428 22.807221 L 86.809041 18.135711 L 95.458676 14.313573 L 104.836342 11.340805 L 114.942046 9.217403 L 125.775797 7.943364 L 137.337604 7.518685 L 151.482138 8.073370 L 166.181358 9.737435 L 177.110478 11.583507 L 187.432879 14.070927 L 197.148571 17.199701 L 206.257562 20.969831 L 214.759859 25.381323 L 222.655472 30.434178 L 229.944408 36.128402 L 236.626675 42.463998 L 242.606922 49.267607 L 247.789793 56.365874 L 252.175291 63.758805 L 255.763420 71.446408 L 258.554181 79.428690 L 260.547578 87.705658 L 261.743614 96.277319 L 262.142292 105.143681 L 261.639611 114.833412 L 260.131567 124.488448 L 257.618154 134.108797 L 254.099369 143.694468 L 249.575208 153.245471 L 244.045665 162.761813 L 237.510738 172.243504 L 229.970421 181.690552 L 222.300111 176.100321 L 214.543151 171.255463 L 206.699535 167.155975 L 198.769254 163.801855 L 190.752304 161.193099 L 182.648675 159.329706 L 174.458363 158.211672 L 166.181358 157.838994 L 157.323664 158.281007 L 148.500662 159.607048 L 139.712344 161.817120 L 130.958701 164.911227 L 122.239727 168.889372 L 113.555413 173.751559 L 104.905750 179.497790 L 96.290731 186.128069 Z" transform="scale(0.240000,0.240000) translate(33.333332,4.166667)" opacity="1.000000"></path>
    </g>
</svg>