<?xml version="1.0" encoding="UTF-8" standalone="yes"?>
<!DOCTYPE svg PUBLIC "-//W3C//DTD SVG 1.1//EN" "http://www.w3.org/Graphics/SVG/1.1/DTD/svg11.dtd">

<svg width="50" height="50" viewBox="0 0 50 50" xmlns="http://www.w3.org/2000/svg" xmlns:xlink="http://www.w3.org/1999/xlink" version="1.1" baseProfile="full">
    <g transform="scale(1,-1) translate(0,-50)">
        <path d="M 35.881584 69.819521 L 36.902924 69.476855 L 37.788084 69.064621 L 38.537064 68.582818 L 39.149864 68.031446 L 39.626485 67.410505 L 39.966928 66.719994 L 40.171194 65.959913 L 40.239282 65.130260 L 40.487956 63.022458 L 40.570846 61.909353 L 39.682728 60.369948 L 39.460699 59.760109 L 39.386689 59.256842 L 39.386689 56.651697 L 36.449980 53.714987 L 36.701614 53.640978 L 36.982850 53.418949 L 37.634137 52.530830 L 37.489077 52.477544 L 37.290731 52.317684 L 36.734177 51.678237 L 37.127911 50.976625 L 37.409148 50.055945 L 37.577890 48.916195 L 37.634137 47.557371 L 37.918334 47.557371 L 38.809415 49.526037 L 39.445899 51.405883 L 39.827789 53.196916 L 39.955085 54.899144 L 39.955085 56.367499 L 40.570846 56.367499 L 41.346468 55.935281 L 42.773372 55.396492 L 47.581056 53.999185 L 48.330037 52.548590 L 48.919155 51.038792 L 49.348411 49.469787 L 49.617806 47.841569 L 49.617806 46.704778 L 46.148220 45.544301 L 42.702330 44.715392 L 39.280122 44.218048 L 35.881584 44.052267 L 33.770076 44.102593 L 31.769589 44.253572 L 29.880120 44.505204 L 28.101667 44.857489 L 26.434231 45.310428 L 24.877808 45.864022 L 23.432397 46.518270 L 22.097996 47.273174 L 22.371833 49.060518 L 22.767044 50.609547 L 23.283631 51.920261 L 23.921593 52.992662 L 24.680933 53.826749 L 25.561649 54.422525 L 26.563744 54.779990 L 27.687217 54.899144 L 27.827836 54.922087 L 28.083908 54.990916 L 28.942419 55.266231 L 32.044915 56.367499 L 32.044915 53.430790 L 32.335033 51.838095 L 32.826457 50.328298 L 33.519188 48.901392 L 34.413230 47.557371 L 34.466516 48.987245 L 34.626376 50.150678 L 34.892812 51.047674 L 35.265823 51.678237 L 35.052674 51.731524 L 34.839526 51.891384 L 34.413230 52.530830 L 35.550020 53.999185 L 35.171090 54.200491 L 34.507965 54.709677 L 32.329113 56.651697 L 32.660677 58.120051 L 32.660677 59.256842 L 32.586668 59.813397 L 32.364639 60.393633 L 31.994590 60.997552 L 31.476520 61.625156 L 31.517965 63.163825 L 31.642301 64.535228 L 31.849527 65.739367 L 32.139645 66.776243 L 32.512654 67.645855 L 32.968554 68.348206 L 33.507347 68.883296 L 34.129032 69.251126 L 34.804001 69.393225 L 35.881584 69.819521 Z M 52.554516 47.557371 L 54.928758 45.322271 L 55.907167 44.215826 L 56.746437 43.116783 L 57.446568 42.025141 L 58.007560 40.940899 L 58.429415 39.864056 L 58.712133 38.794610 L 59.813398 39.220907 L 60.748883 39.363006 L 60.748883 39.078808 L 60.177527 37.151586 L 59.647617 35.775005 L 59.159153 34.949059 L 58.930463 34.742573 L 58.712133 34.673744 L 56.083299 36.757863 L 55.426095 37.338098 L 55.261795 37.512760 L 55.220719 37.571228 L 55.207028 37.610453 L 56.118830 38.036751 L 56.959580 38.178849 L 56.959580 38.510413 L 55.917521 40.440592 L 54.638635 42.299715 L 53.122916 44.087788 L 51.370359 45.804819 L 51.370359 46.373215 Z M 20.345443 47.273174 L 20.629641 46.704778 L 20.576355 44.901893 L 20.416494 43.614123 L 20.150059 42.841464 L 19.976876 42.648300 L 19.777048 42.583912 L 19.445484 42.583912 L 19.392198 43.101982 L 19.232337 43.472031 L 18.965902 43.694060 L 18.592891 43.768069 L 16.541333 40.982333 L 15.075939 38.640666 L 14.196706 36.743060 L 13.976898 35.960777 L 13.903629 35.289506 L 13.619431 35.289506 L 12.151077 35.573704 L 12.151077 35.857901 L 12.467099 37.191562 L 12.870452 38.468973 L 13.361135 39.690133 L 13.939150 40.855045 L 14.604497 41.963709 L 15.357177 43.016127 L 16.197189 44.012299 L 17.124536 44.952226 L 15.940379 46.373215 L 15.940379 46.704778 L 16.224577 46.704778 L 16.713041 46.740303 L 17.562671 46.846876 L 20.345443 47.273174 Z M 13.335234 33.489587 L 14.803588 33.489587 L 15.691710 33.384494 L 16.461413 33.069215 L 17.112700 32.543748 L 17.645570 31.808093 L 18.060024 30.862249 L 18.356061 29.706216 L 18.533684 28.339992 L 18.592891 26.763576 L 17.278474 23.222942 L 16.949872 22.243055 L 16.867722 21.950718 L 16.840339 21.790117 L 16.840339 20.937524 L 17.056447 20.807268 L 17.373208 20.416498 L 18.308693 18.853408 L 21.624344 17.621882 L 23.992657 16.532459 L 24.821564 16.041035 L 25.413639 15.585136 L 25.768884 15.164760 L 25.887299 14.779908 L 26.787258 10.943240 L 25.295215 10.188337 L 23.779494 9.534089 L 22.240092 8.980495 L 20.677008 8.527556 L 19.090242 8.175270 L 17.479790 7.923638 L 15.845652 7.772659 L 14.187827 7.722333 L 13.335234 7.722333 L 11.578234 7.777840 L 9.883408 7.944361 L 8.250753 8.221896 L 6.680268 8.610446 L 5.171952 9.110012 L 3.725803 9.720593 L 2.341819 10.442190 L 1.020000 11.274804 L 1.346384 12.706899 L 1.757138 13.948047 L 2.252262 14.998246 L 2.831757 15.857499 L 3.495624 16.525805 L 4.243863 17.003166 L 5.076475 17.289582 L 5.993460 17.385053 L 8.045018 18.068905 L 8.850986 18.461896 L 9.510412 18.888931 L 10.023298 19.350012 L 10.389645 19.845137 L 10.609453 20.374307 L 10.682722 20.937524 L 10.895870 21.008573 L 10.966919 21.221722 L 10.966919 21.505919 L 10.857386 22.172007 L 10.528784 23.317675 L 9.214367 27.047774 L 9.498565 27.722744 L 9.782762 27.947733 L 9.711713 28.160882 L 9.498565 28.231931 L 9.558512 29.339862 L 9.738355 30.319013 L 10.038093 31.169386 L 10.457727 31.890980 L 10.997258 32.483797 L 11.656685 32.947837 L 12.436011 33.283100 L 13.335234 33.489587 Z M 58.096371 33.489587 L 58.996330 33.489587 L 59.884452 33.380054 L 60.654156 33.051453 L 61.305442 32.503783 L 61.838312 31.737044 L 62.252766 30.751235 L 62.548803 29.546354 L 62.726426 28.122403 L 62.785633 26.479378 L 61.471218 22.867695 L 61.142615 21.905571 L 61.060464 21.635436 L 61.039926 21.553101 L 61.033081 21.505919 L 61.033081 20.937524 L 61.480100 20.827990 L 61.826465 20.499388 L 62.072177 19.951716 L 62.217238 19.184972 L 67.581477 16.852180 L 69.100153 16.103203 L 69.843209 15.632501 L 70.340558 14.415778 L 70.695805 13.181296 L 70.908952 11.929053 L 70.980000 10.659042 L 67.619945 9.374228 L 64.597388 8.456507 L 61.912319 7.905876 L 59.564726 7.722333 L 58.096371 7.722333 L 56.180250 7.777840 L 54.363308 7.944361 L 52.645541 8.221896 L 51.026950 8.610446 L 49.507532 9.110012 L 48.087286 9.720593 L 46.766211 10.442190 L 45.544306 11.274804 L 45.756714 12.706899 L 46.086057 13.948047 L 46.532334 14.998246 L 47.095547 15.857499 L 47.775696 16.525805 L 48.572781 17.003166 L 49.486804 17.289582 L 50.517766 17.385053 L 52.569324 18.139955 L 53.375291 18.550708 L 54.034718 18.983665 L 54.547604 19.438824 L 54.913951 19.916186 L 55.133759 20.415753 L 55.207028 20.937524 L 55.420176 21.008573 L 55.491225 21.221722 L 55.491225 21.790117 L 55.463842 21.967001 L 55.381692 22.260818 L 55.053090 23.199259 L 53.738673 26.479378 L 53.806761 28.122403 L 54.011027 29.546354 L 54.351470 30.751235 L 54.828091 31.737044 L 55.440892 32.503783 L 56.189871 33.051453 L 57.075031 33.380054 L 58.096371 33.489587 Z M 32.329113 8.053897 L 32.660677 7.438135 L 32.660677 6.869740 L 32.329113 6.301345 L 36.165782 5.685583 L 41.707637 6.585542 L 42.323399 5.685583 L 42.323399 5.117188 L 42.085087 4.773041 L 41.725400 4.474781 L 40.641899 4.015920 L 39.072893 3.740605 L 37.018375 3.648833 L 35.265823 3.648833 L 31.760718 3.933031 L 31.476520 2.180479 L 31.192322 2.180479 L 28.255613 5.969781 Z" transform="scale(0.500000,0.500000) translate(14.000000,14.000000)" fill="#094541" opacity="1.000000"></path>
    </g>
</svg>